<?xml version="1.0" standalone="no"?>
<!DOCTYPE svg PUBLIC "-//W3C//DTD SVG 20010904//EN"
 "http://www.w3.org/TR/2001/REC-SVG-20010904/DTD/svg10.dtd">
<svg version="1.0" xmlns="http://www.w3.org/2000/svg"
 width="2872.000000pt" height="852.000000pt" viewBox="0 0 2872.000000 852.000000"
 preserveAspectRatio="xMidYMid meet">

<g transform="translate(0.000000,852.000000) scale(0.100000,-0.100000)"
fill="#000000" stroke="none">
<path d="M8040 4310 l0 -3430 55 0 55 0 0 3430 0 3430 -55 0 -55 0 0 -3430z"/>
<path d="M9183 5558 c3 -2239 1 -2120 52 -2423 64 -373 186 -720 353 -1003
333 -562 870 -953 1547 -1125 295 -75 479 -97 864 -104 531 -9 856 33 1251
163 363 120 682 311 949 569 384 372 623 850 735 1470 63 343 60 235 63 2483
l4 2052 -610 0 -610 0 -4 -2032 c-3 -1872 -4 -2042 -20 -2148 -55 -361 -154
-648 -299 -865 -72 -107 -218 -258 -325 -334 -262 -187 -608 -281 -1037 -281
-909 0 -1450 432 -1625 1297 -57 279 -54 178 -58 2356 l-4 2007 -615 0 -615 0
4 -2082z"/>
<path d="M15400 7120 l0 -520 1100 0 1100 0 0 -2805 0 -2805 620 0 620 0 0
2805 0 2805 1100 0 1100 0 0 520 0 520 -2820 0 -2820 0 0 -520z"/>
<path d="M21490 4315 l0 -3325 615 0 615 0 2 2246 3 2247 1829 -2247 1829
-2246 509 0 508 0 0 3325 0 3325 -610 0 -610 0 0 -2245 c0 -1235 -3 -2245 -7
-2244 -5 0 -829 1010 -1833 2244 l-1825 2244 -512 0 -513 1 0 -3325z"/>
<path d="M980 7523 c1 -100 26 -342 50 -468 82 -443 283 -871 580 -1235 383
-470 870 -793 1448 -960 39 -11 72 -22 72 -23 0 -1 -484 -1 -1075 1 l-1075 3
0 -581 0 -580 1068 0 1067 -1 -120 -35 c-762 -225 -1406 -783 -1757 -1522
-105 -221 -209 -580 -232 -802 -18 -164 -26 -262 -26 -317 l0 -63 579 0 578 0
7 98 c37 530 306 995 746 1289 78 52 237 136 302 159 l38 13 0 -779 0 -780
580 0 580 0 2 780 3 780 95 -43 c482 -218 837 -656 944 -1167 9 -41 22 -137
28 -212 l12 -138 578 0 578 0 0 85 c0 220 -54 540 -132 784 -130 405 -348 763
-668 1094 -365 378 -751 608 -1275 761 -45 13 65 15 1013 15 l1062 1 0 580 0
580 -1072 1 c-759 1 -1063 4 -1038 11 556 165 897 362 1266 732 168 168 231
241 332 384 243 341 397 705 467 1097 22 120 43 330 45 438 l1 87 -575 0 -575
0 -5 -42 c-3 -24 -8 -79 -11 -123 -41 -549 -411 -1082 -928 -1334 -56 -27
-112 -52 -124 -56 l-23 -6 0 775 0 776 -580 0 -580 0 0 -776 0 -775 -22 6
c-13 4 -65 27 -115 50 -394 185 -729 563 -868 979 -38 113 -72 292 -81 419
l-7 107 -578 0 -579 0 0 -67z"/>
</g>
</svg>
