<?xml version="1.0" standalone="no"?>
<!DOCTYPE svg PUBLIC "-//W3C//DTD SVG 20010904//EN"
 "http://www.w3.org/TR/2001/REC-SVG-20010904/DTD/svg10.dtd">
<svg version="1.0" xmlns="http://www.w3.org/2000/svg"
 width="163.000000pt" height="155.000000pt" viewBox="0 0 163.000000 155.000000"
 preserveAspectRatio="xMidYMid meet">

<g transform="translate(0.000000,155.000000) scale(0.100000,-0.100000)"
fill="#000000" stroke="none">
<path d="M3 1498 c14 -112 104 -237 212 -292 l50 -25 -127 -1 -128 0 0 -80 0
-80 142 0 c141 0 159 -6 88 -29 -51 -17 -125 -74 -165 -129 -35 -47 -75 -153
-75 -198 0 -23 3 -24 74 -24 l74 0 7 40 c4 22 19 57 34 79 25 38 85 91 103 91
4 0 8 -47 8 -105 l0 -106 78 3 77 3 5 102 5 103 31 -19 c45 -27 85 -85 99
-139 l12 -47 78 -3 77 -3 -6 38 c-28 156 -114 264 -261 325 -26 11 -13 13 112
16 l143 3 0 79 0 80 -127 0 -128 0 55 31 c72 39 122 89 158 158 25 47 52 136
52 172 0 6 -31 9 -77 7 l-78 -3 -6 -35 c-3 -19 -13 -49 -22 -66 -17 -33 -90
-104 -107 -104 -6 0 -10 42 -10 105 l0 105 -80 0 -80 0 0 -105 c0 -119 -3
-123 -64 -73 -40 33 -86 116 -86 156 0 21 -4 22 -76 22 l-77 0 6 -52z"/>
<path d="M860 425 l0 -135 30 0 30 0 0 60 0 60 60 0 c53 0 60 2 60 20 0 18 -7
20 -60 20 l-60 0 0 35 0 35 70 0 c63 0 70 2 70 20 0 19 -7 20 -100 20 l-100 0
0 -135z"/>
<path d="M1266 474 c-9 -8 -16 -11 -16 -5 0 6 -11 11 -25 11 -25 0 -25 0 -25
-95 0 -95 0 -95 25 -95 24 0 25 3 25 59 0 77 6 91 40 91 27 0 46 22 34 41 -8
14 -41 11 -58 -7z"/>
<path d="M1472 474 c-12 -8 -22 -22 -22 -30 0 -16 31 -19 47 -3 15 15 68 7 68
-10 0 -9 -19 -19 -48 -27 -26 -7 -54 -18 -62 -24 -18 -15 -20 -61 -3 -78 15
-15 90 -16 105 -1 8 8 13 8 17 0 4 -6 16 -11 27 -11 17 0 19 7 19 75 0 67 -3
79 -25 100 -29 29 -88 34 -123 9z m98 -98 c0 -3 -5 -17 -10 -31 -8 -21 -16
-26 -37 -23 -36 4 -43 35 -11 47 24 10 58 14 58 7z"/>
<path d="M65 158 c-10 -29 -26 -74 -36 -100 -18 -46 -18 -48 0 -48 10 0 23 11
29 25 9 20 19 25 47 25 29 0 37 -5 45 -25 10 -25 41 -35 39 -12 0 6 -15 50
-33 97 -25 66 -36 86 -53 88 -17 3 -24 -6 -38 -50z m48 -15 c2 -10 8 -26 12
-35 6 -15 2 -18 -20 -18 -23 0 -26 3 -21 23 3 12 6 28 6 35 0 18 17 15 23 -5z"/>
<path d="M580 110 c0 -93 1 -100 20 -100 19 0 20 7 20 100 0 93 -1 100 -20
100 -19 0 -20 -7 -20 -100z"/>
<path d="M685 110 c0 -89 2 -100 18 -100 15 0 17 11 17 100 0 89 -2 100 -17
100 -16 0 -18 -11 -18 -100z"/>
<path d="M1410 175 c0 -33 -2 -35 -20 -25 -40 22 -80 -15 -80 -74 0 -36 38
-79 64 -71 11 4 31 6 44 6 21 -1 22 2 22 99 0 82 -3 100 -15 100 -11 0 -15
-11 -15 -35z m-2 -86 c3 -39 -17 -65 -43 -55 -10 3 -15 19 -15 44 0 45 6 54
35 50 15 -2 21 -12 23 -39z"/>
<path d="M225 144 c4 -11 16 -45 27 -76 28 -81 48 -78 79 12 22 65 22 89 1 76
-5 -3 -15 -26 -22 -51 -7 -25 -16 -45 -20 -45 -3 0 -13 21 -21 47 -10 31 -21
49 -33 51 -15 3 -17 0 -11 -14z"/>
<path d="M434 152 c-39 -26 -44 -93 -9 -127 29 -30 45 -31 76 -6 30 24 18 39
-17 20 -23 -12 -27 -12 -41 6 -13 19 -12 20 31 23 43 3 46 5 46 32 0 42 -53
75 -86 52z m54 -45 c3 -12 -3 -17 -21 -17 -31 0 -40 10 -25 27 15 18 42 12 46
-10z"/>
<path d="M794 146 c-15 -12 -17 -17 -6 -28 11 -11 14 -10 21 1 9 15 42 12 48
-5 2 -6 -14 -16 -36 -22 -46 -14 -58 -42 -31 -74 15 -19 21 -21 43 -11 14 6
33 9 43 7 17 -5 19 1 16 58 -4 67 -17 88 -57 88 -12 0 -30 -6 -41 -14z m62
-101 c-7 -20 -46 -19 -46 0 0 9 10 19 23 24 24 9 33 0 23 -24z"/>
<path d="M960 85 c0 -60 3 -75 15 -75 11 0 15 12 15 48 0 55 10 75 36 70 16
-3 20 -14 22 -61 2 -42 7 -57 17 -57 12 0 15 15 15 65 0 55 -3 66 -21 76 -16
8 -28 8 -45 0 -15 -6 -25 -7 -29 -1 -16 26 -25 3 -25 -65z"/>
<path d="M1162 144 c-18 -12 -22 -25 -22 -64 0 -42 4 -52 26 -66 19 -13 32
-15 52 -8 30 10 43 44 18 44 -9 0 -16 -4 -16 -10 0 -5 -9 -10 -20 -10 -11 0
-20 2 -20 4 0 2 -3 11 -6 20 -5 13 2 16 40 16 42 0 46 2 46 25 0 29 -32 65
-58 65 -10 0 -28 -7 -40 -16z m58 -18 c0 -2 3 -11 6 -20 5 -13 -1 -16 -25 -16
-33 0 -34 1 -25 24 5 14 44 24 44 12z"/>
<path d="M1516 141 c-13 -15 -14 -20 -4 -23 7 -3 20 0 29 5 18 11 49 3 49 -12
0 -5 -15 -13 -32 -16 -43 -10 -58 -22 -58 -51 0 -28 32 -48 63 -38 12 4 30 7
40 5 15 -2 17 6 17 58 0 68 -15 91 -59 91 -15 0 -36 -9 -45 -19z m74 -75 c0
-20 -27 -39 -45 -32 -22 8 -18 25 8 36 31 12 37 12 37 -4z"/>
</g>
</svg>
